<svg width="580" height="400" xmlns="http://www.w3.org/2000/svg">
 <!-- Created with Method Draw - http://github.com/duopixel/Method-Draw/ -->
 <g>
  <title>background</title>
  <rect fill="#fff" id="canvas_background" height="402" width="582" y="-1" x="-1"/>
  <g display="none" overflow="visible" y="0" x="0" height="100%" width="100%" id="canvasGrid">
   <rect fill="url(#gridpattern)" stroke-width="0" y="0" x="0" height="100%" width="100%"/>
  </g>
 </g>
 <g>
  <title>Layer 1</title>
  <path d="m259.299988,171.512497c0,2 -8.117569,40.170807 -22.999985,62c-11.612885,17.033524 -29.002777,30.024918 -47,28.000015c-24.198914,-2.722656 -50.272079,-23.816254 -63,-62.000015c-3.535538,-10.606598 7.72554,-58.564438 48,-84c41.221817,-26.033867 87.879837,-30.694176 124.999985,-31c31.063385,-0.255928 52.51178,11.251846 63,29c20.311981,34.371841 22.281006,61.267181 15,78c-6.544037,15.039139 -25.119568,24.342133 -48,22c-29.460236,-3.015671 -72.046021,-22.478455 -81.999985,-38c-7.860031,-12.256424 -6.317688,-32.73407 15.999985,-44c37.280548,-18.819168 101.284302,-22.717468 137,3c19.014313,13.691452 26.886566,44.969101 10,91c-18.031372,49.151505 -59.139984,68.597244 -91,65.000015c-45.590607,-5.147522 -92.086166,-33.757141 -103.999985,-69.000015c-16.655838,-49.270508 21.361908,-95.84877 66.999985,-113c55.418762,-20.826904 100.339417,-22.293221 113,-9c10.794983,11.334396 17.095154,38.259445 -6,62c-13.752838,14.137161 -50.202942,18.114426 -84,6c-29.468994,-10.563049 -48.634033,-29.775726 -47,-44c2.144226,-18.665535 37.99173,-35.880608 66,-34c24.460236,1.642372 42.861359,16.415665 47,32c6.160034,23.195999 0.159729,60.777069 -40,86c-17.682312,11.105652 -37.0896,12.7435 -56,0c-21.893509,-14.753784 -24.151154,-43.769913 -15,-64c8.180878,-18.085167 31.358856,-28.840637 63,-19c17.529358,5.451767 29.941772,21.95224 34,38c4.175049,16.509659 -6.240356,31.605927 -20,39c-9.196564,4.941986 -18,4 -25,3l-2,-3l-3,-3l-1,-1" id="svg_1" stroke-width="1.5" stroke="#000" fill="none"/>
 </g>
</svg>